<svg width="188" height="28" viewBox="0 0 188 28" fill="none" xmlns="http://www.w3.org/2000/svg">
<path d="M0.188 14.328C0.188 11.832 0.728 9.612 1.808 7.668C2.888 5.7 4.388 4.176 6.308 3.096C8.252 1.992 10.448 1.44 12.896 1.44C15.896 1.44 18.464 2.232 20.6 3.816C22.736 5.4 24.164 7.56 24.884 10.296H18.116C17.612 9.24 16.892 8.436 15.956 7.884C15.044 7.332 14 7.056 12.824 7.056C10.928 7.056 9.392 7.716 8.216 9.036C7.04 10.356 6.452 12.12 6.452 14.328C6.452 16.536 7.04 18.3 8.216 19.62C9.392 20.94 10.928 21.6 12.824 21.6C14 21.6 15.044 21.324 15.956 20.772C16.892 20.22 17.612 19.416 18.116 18.36H24.884C24.164 21.096 22.736 23.256 20.6 24.84C18.464 26.4 15.896 27.18 12.896 27.18C10.448 27.18 8.252 26.64 6.308 25.56C4.388 24.456 2.888 22.932 1.808 20.988C0.728 19.044 0.188 16.824 0.188 14.328ZM34.8099 0.36V27H28.6539V0.36H34.8099ZM48.4151 27.288C46.4471 27.288 44.6711 26.868 43.0871 26.028C41.5271 25.188 40.2911 23.988 39.3791 22.428C38.4911 20.868 38.0471 19.044 38.0471 16.956C38.0471 14.892 38.5031 13.08 39.4151 11.52C40.3271 9.936 41.5751 8.724 43.1591 7.884C44.7431 7.044 46.5191 6.624 48.4871 6.624C50.4551 6.624 52.2311 7.044 53.8151 7.884C55.3991 8.724 56.6471 9.936 57.5591 11.52C58.4711 13.08 58.9271 14.892 58.9271 16.956C58.9271 19.02 58.4591 20.844 57.5231 22.428C56.6111 23.988 55.3511 25.188 53.7431 26.028C52.1591 26.868 50.3831 27.288 48.4151 27.288ZM48.4151 21.96C49.5911 21.96 50.5871 21.528 51.4031 20.664C52.2431 19.8 52.6631 18.564 52.6631 16.956C52.6631 15.348 52.2551 14.112 51.4391 13.248C50.6471 12.384 49.6631 11.952 48.4871 11.952C47.2871 11.952 46.2911 12.384 45.4991 13.248C44.7071 14.088 44.3111 15.324 44.3111 16.956C44.3111 18.564 44.6951 19.8 45.4631 20.664C46.2551 21.528 47.2391 21.96 48.4151 21.96ZM74.4329 6.696C76.7849 6.696 78.6569 7.464 80.0489 9C81.4649 10.512 82.1729 12.6 82.1729 15.264V27H76.0529V16.092C76.0529 14.748 75.7049 13.704 75.0089 12.96C74.3129 12.216 73.3769 11.844 72.2009 11.844C71.0249 11.844 70.0889 12.216 69.3929 12.96C68.6969 13.704 68.3489 14.748 68.3489 16.092V27H62.1929V6.912H68.3489V9.576C68.9729 8.688 69.8129 7.992 70.8689 7.488C71.9249 6.96 73.1129 6.696 74.4329 6.696ZM105.387 16.632C105.387 17.208 105.351 17.808 105.279 18.432H91.3468C91.4428 19.68 91.8388 20.64 92.5348 21.312C93.2548 21.96 94.1308 22.284 95.1628 22.284C96.6988 22.284 97.7668 21.636 98.3668 20.34H104.919C104.583 21.66 103.971 22.848 103.083 23.904C102.219 24.96 101.127 25.788 99.8068 26.388C98.4868 26.988 97.0108 27.288 95.3788 27.288C93.4108 27.288 91.6588 26.868 90.1228 26.028C88.5868 25.188 87.3868 23.988 86.5228 22.428C85.6588 20.868 85.2268 19.044 85.2268 16.956C85.2268 14.868 85.6468 13.044 86.4868 11.484C87.3508 9.924 88.5508 8.724 90.0868 7.884C91.6228 7.044 93.3868 6.624 95.3788 6.624C97.3228 6.624 99.0508 7.032 100.563 7.848C102.075 8.664 103.251 9.828 104.091 11.34C104.955 12.852 105.387 14.616 105.387 16.632ZM99.0868 15.012C99.0868 13.956 98.7268 13.116 98.0068 12.492C97.2868 11.868 96.3868 11.556 95.3068 11.556C94.2748 11.556 93.3988 11.856 92.6788 12.456C91.9828 13.056 91.5508 13.908 91.3828 15.012H99.0868Z" fill="#FFC700"/>
<path d="M119.83 21.78V27H116.698C114.466 27 112.726 26.46 111.478 25.38C110.23 24.276 109.606 22.488 109.606 20.016V12.024H107.158V6.912H109.606V2.016H115.762V6.912H119.794V12.024H115.762V20.088C115.762 20.688 115.906 21.12 116.194 21.384C116.482 21.648 116.962 21.78 117.634 21.78H119.83ZM122.035 16.92C122.035 14.856 122.419 13.044 123.187 11.484C123.979 9.924 125.047 8.724 126.391 7.884C127.735 7.044 129.235 6.624 130.891 6.624C132.307 6.624 133.543 6.912 134.599 7.488C135.679 8.064 136.507 8.82 137.083 9.756V6.912H143.239V27H137.083V24.156C136.483 25.092 135.643 25.848 134.563 26.424C133.507 27 132.271 27.288 130.855 27.288C129.223 27.288 127.735 26.868 126.391 26.028C125.047 25.164 123.979 23.952 123.187 22.392C122.419 20.808 122.035 18.984 122.035 16.92ZM137.083 16.956C137.083 15.42 136.651 14.208 135.787 13.32C134.947 12.432 133.915 11.988 132.691 11.988C131.467 11.988 130.423 12.432 129.559 13.32C128.719 14.184 128.299 15.384 128.299 16.92C128.299 18.456 128.719 19.68 129.559 20.592C130.423 21.48 131.467 21.924 132.691 21.924C133.915 21.924 134.947 21.48 135.787 20.592C136.651 19.704 137.083 18.492 137.083 16.956ZM153.849 0.36V27H147.693V0.36H153.849ZM170.586 27L164.466 18.576V27H158.31V0.36H164.466V15.084L170.55 6.912H178.146L169.794 16.992L178.218 27H170.586ZM183.444 27.288C182.364 27.288 181.476 26.976 180.78 26.352C180.108 25.704 179.772 24.912 179.772 23.976C179.772 23.016 180.108 22.212 180.78 21.564C181.476 20.916 182.364 20.592 183.444 20.592C184.5 20.592 185.364 20.916 186.036 21.564C186.732 22.212 187.08 23.016 187.08 23.976C187.08 24.912 186.732 25.704 186.036 26.352C185.364 26.976 184.5 27.288 183.444 27.288Z" fill="black"/>
</svg>
